<?xml version="1.0" encoding="iso-8859-1"?>
<!-- Generator: Adobe Illustrator 19.0.0, SVG Export Plug-In . SVG Version: 6.00 Build 0)  -->
<svg version="1.1" id="Capa_1" xmlns="http://www.w3.org/2000/svg" xmlns:xlink="http://www.w3.org/1999/xlink" x="0px" y="0px"
	 viewBox="0 0 491.52 491.52" style="enable-background:new 0 0 491.52 491.52;" xml:space="preserve">
<circle style="fill:#45B39C;" cx="245.76" cy="245.76" r="245.76"/>
<path style="opacity:0.1;enable-background:new    ;" d="M489.751,274.827l-133.45-133.413l-0.205-0.256l-0.87-0.871
	c-0.87-0.716-1.997-1.126-3.174-1.126H138.598c-2.816,0-5.12,2.304-5.12,5.12v129.741c0,1.177,0.41,2.304,1.075,3.174l3.328,3.328
	c-2.15,0.103-4.147,0.87-4.608,1.842l-28.058,63.949c-0.205,0.358-0.256,0.666-0.205,1.024h-0.051v3.123h0.051
	c0,0.307,0.103,0.564,0.307,0.819l0.307,0.256l139.977,139.977c0.053,0,0.104,0.004,0.157,0.004
	C371.648,491.52,475.362,396.846,489.751,274.827z"/>
<path style="fill:#E1E6E9;" d="M385.23,347.168l-26.986-61.482c-0.477-1.034-2.684-1.866-4.933-1.866H138.209
	c-2.249,0-4.456,0.832-4.933,1.866l-27.053,61.634h-1.263v3.145h0.068c0.028,1.095,1.423,1.903,3.713,1.903h274.036
	c2.291,0,3.744-0.809,3.773-1.903v-3.298L385.23,347.168z"/>
<path style="fill:#EBF0F3;" d="M382.778,349.071H108.742c-2.866,0-4.437-1.246-3.521-2.765l28.055-63.917
	c0.476-1.034,2.683-1.865,4.933-1.865H353.31c2.25,0,4.457,0.832,4.933,1.865l28.055,63.917
	C387.215,347.825,385.644,349.071,382.778,349.071z"/>
<polygon style="fill:#E1E6E9;" points="202.394,344.388 210.828,326.954 280.692,326.954 289.126,344.388 "/>
<g>
	<polygon style="fill:#64798A;" points="148.592,291.028 135.176,291.028 136.598,287.81 149.843,287.81 	"/>
	<polygon style="fill:#64798A;" points="169.347,291.028 155.93,291.028 157.086,287.81 170.33,287.81 	"/>
	<polygon style="fill:#64798A;" points="185.279,291.028 171.862,291.028 172.813,287.81 186.057,287.81 	"/>
	<polygon style="fill:#64798A;" points="201.212,291.028 187.795,291.028 188.541,287.81 201.785,287.81 	"/>
	<polygon style="fill:#64798A;" points="217.144,291.028 203.727,291.028 204.268,287.81 217.512,287.81 	"/>
	<polygon style="fill:#64798A;" points="238.947,291.028 225.53,291.028 225.79,287.81 239.034,287.81 	"/>
	<polygon style="fill:#64798A;" points="254.879,291.028 241.462,291.028 241.518,287.81 254.762,287.81 	"/>
	<polygon style="fill:#64798A;" points="270.812,291.028 257.395,291.028 257.245,287.81 270.49,287.81 	"/>
	<polygon style="fill:#64798A;" points="286.744,291.028 273.327,291.028 272.973,287.81 286.217,287.81 	"/>
	<polygon style="fill:#64798A;" points="145.848,298.093 132.052,298.093 134.259,293.102 147.787,293.102 	"/>
	<polygon style="fill:#64798A;" points="163.605,298.093 149.809,298.093 151.671,293.102 165.199,293.102 	"/>
	<polygon style="fill:#64798A;" points="181.362,298.093 167.566,298.093 169.083,293.102 182.611,293.102 	"/>
	<polygon style="fill:#64798A;" points="199.118,298.093 185.322,298.093 186.495,293.102 200.023,293.102 	"/>
	<polygon style="fill:#64798A;" points="216.875,298.093 203.079,298.093 203.907,293.102 217.435,293.102 	"/>
	<polygon style="fill:#64798A;" points="234.632,298.093 220.836,298.093 221.32,293.102 234.848,293.102 	"/>
	<polygon style="fill:#64798A;" points="252.388,298.093 238.593,298.093 238.732,293.102 252.26,293.102 	"/>
	<polygon style="fill:#64798A;" points="270.145,298.093 256.349,298.093 256.144,293.102 269.672,293.102 	"/>
	<polygon style="fill:#64798A;" points="287.902,298.093 274.106,298.093 273.556,293.102 287.084,293.102 	"/>
	<polygon style="fill:#64798A;" points="142.944,305.569 128.748,305.569 131.083,300.287 144.996,300.287 	"/>
	<polygon style="fill:#64798A;" points="161.217,305.569 147.02,305.569 148.991,300.287 162.904,300.287 	"/>
	<polygon style="fill:#64798A;" points="179.49,305.569 165.293,305.569 166.899,300.287 180.812,300.287 	"/>
	<polygon style="fill:#64798A;" points="197.763,305.569 183.566,305.569 184.807,300.287 198.721,300.287 	"/>
	<polygon style="fill:#64798A;" points="216.036,305.569 201.839,305.569 202.715,300.287 216.629,300.287 	"/>
	<polygon style="fill:#64798A;" points="234.308,305.569 220.112,305.569 220.623,300.287 234.537,300.287 	"/>
	<polygon style="fill:#64798A;" points="252.581,305.569 238.384,305.569 238.532,300.287 252.445,300.287 	"/>
	<polygon style="fill:#64798A;" points="270.854,305.569 256.657,305.569 256.44,300.287 270.353,300.287 	"/>
	<polygon style="fill:#64798A;" points="289.127,305.569 274.93,305.569 274.348,300.287 288.261,300.287 	"/>
	<polygon style="fill:#64798A;" points="146.374,313.493 125.245,313.493 127.721,307.893 148.416,307.893 	"/>
	<polygon style="fill:#64798A;" points="165.301,313.493 150.09,313.493 152.056,307.893 166.954,307.893 	"/>
	<polygon style="fill:#64798A;" points="184.196,313.493 168.985,313.493 170.562,307.893 185.46,307.893 	"/>
	<polygon style="fill:#64798A;" points="203.773,313.493 188.563,313.493 189.738,307.893 204.636,307.893 	"/>
	<polygon style="fill:#64798A;" points="223.351,313.493 208.14,313.493 208.913,307.893 223.811,307.893 	"/>
	<polygon style="fill:#64798A;" points="242.928,313.493 227.718,313.493 228.088,307.893 242.986,307.893 	"/>
	<polygon style="fill:#64798A;" points="262.506,313.493 247.295,313.493 247.264,307.893 262.162,307.893 	"/>
	<polygon style="fill:#64798A;" points="290.425,313.493 267.591,313.493 267.142,307.893 289.507,307.893 	"/>
	<polygon style="fill:#64798A;" points="136.599,321.905 121.526,321.905 124.155,315.958 138.909,315.958 	"/>
	<polygon style="fill:#64798A;" points="214.201,321.905 140.927,321.905 143.145,315.958 214.869,315.958 	"/>
	<polygon style="fill:#64798A;" points="233.602,321.905 218.529,321.905 219.105,315.958 233.859,315.958 	"/>
	<polygon style="fill:#64798A;" points="253.002,321.905 237.929,321.905 238.095,315.958 252.849,315.958 	"/>
	<polygon style="fill:#64798A;" points="272.403,321.905 257.33,321.905 257.085,315.958 271.839,315.958 	"/>
	<polygon style="fill:#64798A;" points="291.803,321.905 276.73,321.905 276.075,315.958 290.829,315.958 	"/>
	<polygon style="fill:#64798A;" points="309.021,292.917 295.503,292.917 294.495,287.81 307.739,287.81 	"/>
	<polygon style="fill:#64798A;" points="325.074,292.917 311.555,292.917 310.222,287.81 323.467,287.81 	"/>
	<polygon style="fill:#64798A;" points="341.126,292.917 327.608,292.917 325.95,287.81 339.194,287.81 	"/>
	<polygon style="fill:#64798A;" points="357.179,292.917 343.661,292.917 341.677,287.81 354.922,287.81 	"/>
	<polygon style="fill:#64798A;" points="310.695,299.588 296.819,299.588 295.758,294.21 309.345,294.21 	"/>
	<polygon style="fill:#64798A;" points="327.173,299.588 313.297,299.588 311.893,294.21 325.481,294.21 	"/>
	<polygon style="fill:#64798A;" points="343.651,299.588 329.775,299.588 328.028,294.21 341.616,294.21 	"/>
	<polygon style="fill:#64798A;" points="360.128,299.588 346.252,299.588 344.164,294.21 357.751,294.21 	"/>
	<polygon style="fill:#64798A;" points="312.461,306.623 298.208,306.623 297.088,300.952 311.037,300.952 	"/>
	<polygon style="fill:#64798A;" points="329.387,306.623 315.133,306.623 313.653,300.952 327.602,300.952 	"/>
	<polygon style="fill:#64798A;" points="346.312,306.623 332.059,306.623 330.217,300.952 344.167,300.952 	"/>
	<polygon style="fill:#64798A;" points="363.238,306.623 348.985,306.623 346.782,300.952 360.731,300.952 	"/>
	<polygon style="fill:#64798A;" points="314.325,314.051 299.673,314.051 298.491,308.061 312.822,308.061 	"/>
	<polygon style="fill:#64798A;" points="331.724,314.051 317.072,314.051 315.509,308.061 329.839,308.061 	"/>
	<polygon style="fill:#64798A;" points="349.123,314.051 334.471,314.051 332.526,308.061 346.857,308.061 	"/>
	<polygon style="fill:#64798A;" points="366.521,314.051 351.87,314.051 349.544,308.061 363.874,308.061 	"/>
	<polygon style="fill:#64798A;" points="316.296,321.905 301.224,321.905 299.973,315.571 314.707,315.571 	"/>
	<polygon style="fill:#64798A;" points="334.195,321.905 319.123,321.905 317.469,315.571 332.202,315.571 	"/>
	<polygon style="fill:#64798A;" points="352.095,321.905 337.022,321.905 334.965,315.571 349.698,315.571 	"/>
	<polygon style="fill:#64798A;" points="369.994,321.905 354.921,321.905 352.46,315.571 367.194,315.571 	"/>
	<path style="fill:#64798A;" d="M352.045,139.151H138.617c-2.836,0-5.134,2.299-5.134,5.134v129.716
		c0,2.835,2.299,5.134,5.134,5.134h213.428c2.836,0,5.134-2.299,5.134-5.134V144.285
		C357.179,141.45,354.881,139.151,352.045,139.151z"/>
</g>
<rect x="145.05" y="150.71" style="fill:#3A556A;" width="200.55" height="116.86"/>
<rect x="145.05" y="167.4" style="fill:#2F4859;" width="200.55" height="100.18"/>
<path style="fill:#3A556A;" d="M339.37,273.334H151.293c-0.59,0-1.068,0.478-1.068,1.068v7.995c0,0.59,0.478,1.068,1.068,1.068
	H339.37c0.59,0,1.068-0.478,1.068-1.068v-7.995C340.438,273.812,339.96,273.334,339.37,273.334z"/>
<circle style="fill:#E56353;" cx="334.59" cy="158.93" r="5.176"/>
<circle style="fill:#44C4A1;" cx="320.87" cy="158.93" r="5.176"/>
<circle style="fill:#FCD462;" cx="307.09" cy="158.93" r="5.176"/>
<rect x="150.87" y="153.75" style="fill:#EBF0F3;" width="145.5" height="10.358"/>
<rect x="215.96" y="172.01" style="fill:#D5D6DB;" width="123.8" height="45.46"/>
<g>
	<rect x="215.96" y="170.19" style="fill:#FFFFFF;" width="123.8" height="45.46"/>
	<rect x="215.96" y="219.35" style="fill:#FFFFFF;" width="123.8" height="45.46"/>
</g>
<rect x="220.83" y="249.56" style="fill:#E56353;" width="7.153" height="12"/>
<rect x="230.45" y="231.73" style="fill:#27A2DB;" width="7.153" height="29.86"/>
<rect x="240.08" y="222.57" style="fill:#44C4A1;" width="7.153" height="38.973"/>
<rect x="249.72" y="240.44" style="fill:#FCD462;" width="7.153" height="21.12"/>
<rect x="220.83" y="259.06" style="fill:#D15241;" width="7.153" height="2.509"/>
<rect x="230.45" y="259.06" style="fill:#2D93BA;" width="7.153" height="2.509"/>
<rect x="240.08" y="259.06" style="fill:#3EA69B;" width="7.153" height="2.509"/>
<rect x="249.72" y="259.06" style="fill:#F6C358;" width="7.153" height="2.509"/>
<rect x="260.05" y="231.73" style="fill:#E56353;" width="7.153" height="29.86"/>
<rect x="269.69" y="242.07" style="fill:#27A2DB;" width="7.153" height="19.487"/>
<rect x="279.35" y="233.85" style="fill:#44C4A1;" width="7.153" height="27.72"/>
<rect x="288.97" y="224.66" style="fill:#FCD462;" width="7.153" height="36.905"/>
<rect x="260.05" y="259.06" style="fill:#D15241;" width="7.153" height="2.509"/>
<rect x="269.69" y="259.06" style="fill:#2D93BA;" width="7.153" height="2.509"/>
<rect x="279.35" y="259.06" style="fill:#3EA69B;" width="7.153" height="2.509"/>
<rect x="288.97" y="259.06" style="fill:#F6C358;" width="7.153" height="2.509"/>
<rect x="299.31" y="243.69" style="fill:#E56353;" width="7.153" height="17.874"/>
<rect x="308.94" y="230.76" style="fill:#27A2DB;" width="7.153" height="30.822"/>
<rect x="318.57" y="241.77" style="fill:#44C4A1;" width="7.153" height="19.794"/>
<rect x="328.19" y="224.66" style="fill:#FCD462;" width="7.153" height="36.905"/>
<rect x="299.31" y="259.06" style="fill:#D15241;" width="7.153" height="2.509"/>
<rect x="308.94" y="259.06" style="fill:#2D93BA;" width="7.153" height="2.509"/>
<rect x="318.57" y="259.06" style="fill:#3EA69B;" width="7.153" height="2.509"/>
<rect x="328.19" y="259.06" style="fill:#F6C358;" width="7.153" height="2.509"/>
<path style="fill:#44C4A1;" d="M218.252,214.376c-0.27,0-0.545-0.102-0.765-0.31c-0.49-0.46-0.545-1.27-0.124-1.805l15.766-19.99
	c0.367-0.465,0.976-0.58,1.466-0.28l17.466,10.735l15.446-17.448c0.371-0.42,0.962-0.517,1.439-0.215l18.621,11.92L302,179.596
	c0.357-0.435,0.944-0.545,1.407-0.277l16.752,9.397l14.442-13.535c0.499-0.458,1.237-0.4,1.654,0.135
	c0.422,0.538,0.367,1.345-0.124,1.805l-15.043,14.097c-0.367,0.34-0.875,0.402-1.301,0.168l-16.651-9.343l-14.47,17.43
	c-0.371,0.45-0.981,0.548-1.466,0.245l-18.649-11.938l-15.432,17.435c-0.367,0.415-0.948,0.51-1.42,0.225l-17.421-10.705
	l-15.139,19.195C218.908,214.226,218.582,214.376,218.252,214.376z"/>
<path style="fill:#E56353;" d="M218.252,214.376c-0.444,0-0.871-0.277-1.068-0.75c-0.27-0.645-0.009-1.402,0.582-1.695l19.34-9.588
	c0.298-0.152,0.632-0.155,0.939-0.015l13.796,6.292l13.906-8.077c0.266-0.155,0.568-0.19,0.861-0.105l18.58,5.565l17.082-11.15
	c0.266-0.173,0.582-0.22,0.871-0.148l20.688,5.385l5.81-4.37c0.531-0.395,1.265-0.253,1.631,0.327
	c0.367,0.583,0.234,1.38-0.302,1.783l-6.241,4.693c-0.275,0.205-0.623,0.27-0.935,0.19l-20.729-5.398l-17.1,11.165
	c-0.275,0.178-0.6,0.228-0.912,0.138l-18.616-5.575l-13.984,8.123c-0.307,0.185-0.678,0.197-1.003,0.05l-13.837-6.313l-18.873,9.357
	C218.582,214.338,218.417,214.376,218.252,214.376z"/>
<path style="fill:#F6C358;" d="M178.631,242.788l-3.608-15.402c-0.159-0.679-0.765-1.159-1.462-1.159h-18.646
	c-0.697,0-1.303,0.48-1.462,1.159l-3.607,15.402c-0.221,0.942,0.494,1.843,1.462,1.843h25.861
	C178.137,244.631,178.852,243.729,178.631,242.788z"/>
<path style="fill:#FCD462;" d="M173.562,226.227h-18.646c-0.697,0-1.303,0.48-1.462,1.159l-3.607,15.402
	c-0.221,0.942,0.494,1.843,1.462,1.843c13.411-0.684,22.423-5.414,23.715-17.245C174.865,226.707,174.259,226.227,173.562,226.227z"
	/>
<path style="fill:#F6C358;" d="M209.405,242.788l-3.608-15.402c-0.159-0.679-0.765-1.159-1.462-1.159H185.69
	c-0.697,0-1.303,0.48-1.462,1.159l-3.607,15.402c-0.221,0.942,0.494,1.843,1.462,1.843h25.861
	C208.911,244.631,209.625,243.729,209.405,242.788z"/>
<path style="fill:#FCD462;" d="M204.336,226.227H185.69c-0.697,0-1.303,0.48-1.462,1.159l-3.607,15.402
	c-0.221,0.942,0.494,1.843,1.462,1.843c13.411-0.684,22.423-5.414,23.715-17.245C205.638,226.707,205.033,226.227,204.336,226.227z"
	/>
<path style="fill:#F6C358;" d="M194.018,224.383l-3.608-15.402c-0.159-0.679-0.765-1.159-1.462-1.159h-18.646
	c-0.697,0-1.303,0.48-1.462,1.159l-3.607,15.402c-0.221,0.942,0.494,1.844,1.462,1.844h25.861
	C193.524,226.227,194.239,225.325,194.018,224.383z"/>
<g>
	<path style="fill:#FCD462;" d="M188.949,207.823h-18.646c-0.697,0-1.303,0.48-1.462,1.159l-3.607,15.402
		c-0.221,0.942,0.494,1.844,1.462,1.844c13.411-0.684,22.423-5.414,23.715-17.245C190.252,208.303,189.646,207.823,188.949,207.823z
		"/>
	<path style="fill:#FCD462;" d="M173.444,193.549c0,2.407-1.951,4.358-4.358,4.358c2.407,0,4.358,1.951,4.358,4.358
		c0-2.407,1.951-4.358,4.358-4.358C175.395,197.907,173.444,195.956,173.444,193.549z"/>
	<path style="fill:#FCD462;" d="M194.058,201.896c0,2.407-1.951,4.358-4.358,4.358c2.407,0,4.358,1.951,4.358,4.358
		c0-2.407,1.951-4.358,4.358-4.358C196.01,206.255,194.058,204.303,194.058,201.896z"/>
	<path style="fill:#FCD462;" d="M203.37,215.972c0,2.407-1.951,4.358-4.358,4.358c2.407,0,4.358,1.951,4.358,4.358
		c0-2.407,1.951-4.358,4.358-4.358C205.321,220.33,203.37,218.379,203.37,215.972z"/>
	<path style="fill:#FCD462;" d="M154.165,214.812c0,2.407-1.951,4.358-4.358,4.358c2.407,0,4.358,1.951,4.358,4.358
		c0-2.407,1.951-4.358,4.358-4.358C156.117,219.17,154.165,217.219,154.165,214.812z"/>
	<path style="fill:#FCD462;" d="M197,186.536c0,3.189-2.585,5.775-5.775,5.775c3.189,0,5.775,2.586,5.775,5.775
		c0-3.189,2.585-5.775,5.775-5.775C199.586,192.311,197,189.726,197,186.536z"/>
	<path style="fill:#FCD462;" d="M159.219,184.993c0,5.198-4.214,9.412-9.412,9.412c5.198,0,9.412,4.214,9.412,9.412
		c0-5.198,4.214-9.412,9.412-9.412C163.433,194.405,159.219,190.191,159.219,184.993z"/>
</g>
<g>
</g>
<g>
</g>
<g>
</g>
<g>
</g>
<g>
</g>
<g>
</g>
<g>
</g>
<g>
</g>
<g>
</g>
<g>
</g>
<g>
</g>
<g>
</g>
<g>
</g>
<g>
</g>
<g>
</g>
</svg>
