<svg height="512pt" viewBox="-21 0 512 512.001" width="512pt" xmlns="http://www.w3.org/2000/svg"><path d="m300.617188 297.128906c-6.5625-6.5625-6.808594-17.03125-.773438-23.910156h-92.941406v226.28125c0 2.75 2.25 5 5 5h87.210937c2.75 0 5-2.25 5-5v-198.875zm0 0" fill="#5dc647"/><path d="m204.089844 203.148438h14.074218v29.503906h77.523438v-29.503906h10.6875c6.023438 0 10.949219-4.925782 10.949219-10.949219v-158.960938c0-6.019531-4.925781-10.945312-10.949219-10.945312h-4.804688c-6.019531 0-10.945312 4.925781-10.945312 10.949219v71.40625h-5.796875v-86.203126c0-6.019531-4.925781-10.945312-10.945313-10.945312h-4.804687c-6.023437 0-10.949219 4.925781-10.945313 10.945312l-.003906 86.203126-5.789062.003906v-86.203125c0-6.023438-4.925782-10.945313-10.949219-10.949219l-4.808594.003906c-6.019531-.003906-10.945312 4.921875-10.945312 10.941406v86.203126h-5.792969v-76.050782c0-6.019531-4.921875-10.945312-10.945312-10.945312h-4.804688c-6.023438 0-10.949219 4.925781-10.949219 10.945312v99.140625l-12.757812-12.757812c-6.839844-6.839844-17.929688-6.839844-24.769531 0-6.835938 6.839843-6.835938 17.929687 0 24.769531l37.527343 37.527344v14.925781c0 6.019531 4.925781 10.941406 10.945313 10.945313zm0 0" fill="#ffd5b3"/><path d="m300.617188 272.363281c4.046874-4.046875 9.574218-5.679687 14.835937-4.941406v-29.769531c0-2.75-2.25-5-5-5h-109.890625c-2.75 0-5 2.25-5 5v30.566406c0 2.75 2.25 5 5 5h99.28125c.253906-.289062.496094-.582031.773438-.855469zm0 0" fill="#368c0e"/><path d="m462.324219 190.621094c0-6.019532-4.925781-10.945313-10.945313-10.945313h-4.808594c-6.023437 0-10.949218 4.925781-10.949218 10.945313v71.410156h-5.789063v-86.207031c0-6.019531-4.929687-10.945313-10.949219-10.945313h-4.808593c-6.019531.003906-10.945313 4.925782-10.941407 10.949219l-.003906 86.199219-5.792968.003906.003906-86.203125c-.003906-6.023437-4.925782-10.945313-10.949219-10.949219h-4.808594c-6.019531 0-10.945312 4.925782-10.945312 10.945313v86.203125h-5.792969v-76.050782c0-6.023437-4.925781-10.945312-10.945312-10.949218h-4.808594c-6.019532 0-10.945313 4.925781-10.945313 10.949218v99.140626l-12.757812-12.757813c-6.839844-6.839844-17.929688-6.839844-24.769531 0-6.835938 6.839844-6.835938 17.929687 0 24.769531l37.527343 37.523438v14.925781c0 6.023437 4.925781 10.945313 10.945313 10.949219h14.074218v139.460937c0 2.480469 2.027344 4.507813 4.507813 4.507813h68.511719c2.476562 0 4.507812-2.027344 4.507812-4.507813v-139.460937h10.6875c6.019532 0 10.945313-4.925782 10.945313-10.945313zm0 0" fill="#c6a07d"/><path d="m174.324219 268.121094c0-6.019532-4.925781-10.945313-10.945313-10.945313h-4.808594c-6.019531 0-10.945312 4.921875-10.945312 10.945313v71.410156h-5.792969v-86.207031c0-6.019531-4.925781-10.941407-10.949219-10.941407h-4.804687c-6.023437 0-10.949219 4.925782-10.945313 10.945313l-.003906 86.203125h-5.789062v-86.203125c0-6.019531-4.925782-10.945313-10.945313-10.949219l-4.8125.003906c-6.019531-.003906-10.945312 4.921876-10.945312 10.945313l.003906 86.203125-5.792969-.003906v-76.050782c0-6.019531-4.925781-10.945312-10.945312-10.945312h-4.808594c-6.023438 0-10.949219 4.925781-10.949219 10.945312v99.144532l-12.757812-12.757813c-6.839844-6.839843-17.929688-6.839843-24.769531 0-6.835938 6.835938-6.835938 17.925781 0 24.765625l37.527343 37.527344v14.925781c0 6.019531 4.929688 10.945313 10.945313 10.945313h14.074218v61.964844c0 2.480468 2.027344 4.507812 4.507813 4.507812h68.511719c2.476562 0 4.507812-2.027344 4.507812-4.507812v-61.964844h10.6875c6.019532 0 10.945313-4.925782 10.945313-10.945313zm0 0" fill="#775436"/><path d="m216.765625 129.238281c-3.953125-1.21875-8.15625 1.003907-9.375 4.960938-1.21875 3.960937 1.003906 8.15625 4.964844 9.375.296875.09375 29.859375 9.621093 29.859375 46.917969 0 4.144531 3.355468 7.5 7.5 7.5 4.144531 0 7.5-3.355469 7.5-7.5 0-38.609376-26.460938-56.949219-40.449219-61.253907zm0 0"/><path d="m228.011719 245.4375h-12.617188c-4.144531 0-7.5 3.355469-7.5 7.5 0 4.140625 3.355469 7.5 7.5 7.5h12.617188c4.144531 0 7.5-3.359375 7.5-7.5 0-4.144531-3.355469-7.5-7.5-7.5zm0 0"/><path d="m469.824219 190.621094c0-10.171875-8.277344-18.445313-18.445313-18.445313h-4.808594-.003906c-3.308594 0-6.484375.871094-9.269531 2.5-.277344-4.484375-2.164063-8.667969-5.378906-11.886719-3.492188-3.488281-8.117188-5.40625-13.03125-5.40625h-4.8125c-4.914063 0-9.542969 1.921876-13.03125 5.410157-.28125.28125-.550781.566406-.808594.859375-3.382813-3.84375-8.335937-6.269532-13.84375-6.269532h-4.808594c-.003906 0-.003906 0-.003906 0-4.914063 0-9.542969 1.921876-13.03125 5.410157-2.1875 2.191406-3.761719 4.828125-4.628906 7.703125-2.886719-1.875-6.328125-2.964844-10.019531-2.964844h-4.808594c-4.917969 0-9.546875 1.921875-13.035156 5.414062-3.492188 3.488282-5.414063 8.117188-5.414063 13.03125v81.035157c-2.28125-2.269531-4.898437-4-7.691406-5.207031v-24.152344c0-6.890625-5.605469-12.5-12.5-12.5h-7.261719v-14.503906h3.1875c10.171875 0 18.449219-8.277344 18.449219-18.449219v-158.960938c0-10.167969-8.277344-18.445312-18.449219-18.445312h-4.804688c-3.378906 0-6.550781.914062-9.277343 2.507812-.273438-4.488281-2.160157-8.671875-5.375-11.890625-3.492188-3.488281-8.117188-5.410156-13.03125-5.410156h-4.8125c-4.914063 0-9.542969 1.921875-13.035157 5.414062-.277343.277344-.546874.5625-.804687.855469-3.382813-3.839843-8.335937-6.26562475-13.847656-6.269531l-4.808594.00390625c-8.320313 0-15.367187 5.53124975-17.660156 13.11328175-2.886719-1.875-6.328125-2.964844-10.019531-2.964844h-4.808594c-10.171875 0-18.445313 8.273437-18.445313 18.445312v81.039063c-4.71875-4.699219-10.980469-7.285157-17.644531-7.285157-6.679688 0-12.960938 2.601563-17.6875 7.328126-9.75 9.753906-9.75 25.621093 0 35.375l35.328125 35.328124.003906 11.820313c0 10.167969 8.273438 18.445313 18.445313 18.445313h6.574218v14.503906h-10.105468c-6.894532 0-12.5 5.609375-12.5 12.5v30.566406c0 6.5 4.988281 11.855469 11.34375 12.441406v218.839844c0 6.894531 5.605468 12.5 12.5 12.5h87.207031c6.894531 0 12.5-5.605469 12.5-12.5v-180.769531l19.03125 19.03125v11.824219c.003906 10.167968 8.277344 18.441406 18.445313 18.441406h6.574218v131.964844c0 6.621093 5.386719 12.007812 12.007813 12.007812h68.511719c6.621093 0 12.007812-5.386719 12.007812-12.007812v-21.992188c0-4.140625-3.355469-7.5-7.5-7.5s-7.5 3.359375-7.5 7.5v19h-62.523438v-136.472656c0-4.140625-3.359374-7.5-7.5-7.5h-14.074218c-1.867188 0-3.445313-1.578125-3.449219-3.445313v-14.925781c0-1.992188-.789063-3.898438-2.195313-5.304688l-37.523437-37.523437c-3.902344-3.90625-3.90625-10.257813 0-14.164063 3.902344-3.902343 10.257813-3.902343 14.160156 0l12.757813 12.757813c2.144531 2.144531 5.367187 2.789063 8.171875 1.628906 2.804687-1.164062 4.632812-3.898437 4.632812-6.929687v-99.144532c0-1.222656.636719-2.046874 1.015625-2.425781.382813-.378906 1.203125-1.019531 2.429688-1.019531h4.808594c1.867187 0 3.445312 1.578125 3.445312 3.445312v76.050782c0 4.144531 3.355469 7.5 7.5 7.5l5.792969.003906c1.988281 0 3.898437-.789062 5.304687-2.195312s2.195313-3.316407 2.195313-5.304688v-86.203125c0-1.226563.636719-2.046875 1.019531-2.429687.378906-.378907 1.199219-1.015626 2.425781-1.015626h4.808594c1.871094 0 3.449219 1.578126 3.449219 3.445313l-.003906 86.203125c0 1.988281.792968 3.898438 2.199218 5.304688s3.3125 2.195312 5.304688 2.195312h5.792968c4.140626 0 7.496094-3.359375 7.496094-7.5l.003906-86.207031c0-1.222657.636719-2.042969 1.019532-2.425781.378906-.378907 1.199218-1.015626 2.425781-1.015626h4.808594c1.226562 0 2.046875.636719 2.429687 1.015626.378906.382812 1.015625 1.203124 1.015625 2.425781v86.207031c0 1.988281.789063 3.898438 2.199219 5.304688 1.40625 1.40625 3.3125 2.195312 5.300781 2.195312h5.792969c4.140625 0 7.5-3.359375 7.5-7.5v-71.410156c0-1.226563.636719-2.046875 1.019531-2.425782.378907-.382812 1.199219-1.019531 2.425781-1.019531h4.808594c1.867188 0 3.445313 1.578125 3.445313 3.445313l.003906 158.960937c0 1.226563-.640625 2.046875-1.019531 2.429688-.378906.378906-1.199219 1.015625-2.425782 1.015625h-10.691406c-4.140625 0-7.5 3.359375-7.5 7.5v81.472656c0 4.140625 3.359375 7.5 7.5 7.5 4.144532 0 7.5-3.359375 7.5-7.5v-73.972656h3.191406c4.914063 0 9.542969-1.921875 13.03125-5.410156 3.492188-3.492188 5.414063-8.121094 5.414063-13.035157zm-266.761719 49.53125h43.84375c4.144531 0 7.5-3.355469 7.5-7.5 0-4.140625-3.355469-7.5-7.5-7.5h-21.242188v-22.003906c0-4.140626-3.355468-7.5-7.5-7.5h-14.070312c-1.871094 0-3.449219-1.578126-3.449219-3.449219v-14.925781c0-1.988282-.792969-3.894532-2.199219-5.300782l-37.523437-37.527344c-3.902344-3.902343-3.902344-10.257812 0-14.160156 1.890625-1.890625 4.40625-2.933594 7.082031-2.933594 2.675782 0 5.1875 1.042969 7.078125 2.933594l12.761719 12.757813c2.144531 2.144531 5.367188 2.785156 8.171875 1.625 2.804687-1.160157 4.628906-3.894531 4.628906-6.929688v-99.140625c0-1.867187 1.582031-3.445312 3.449219-3.445312h4.804688c1.867187 0 3.445312 1.578125 3.445312 3.445312v76.050782c0 4.140624 3.359375 7.5 7.5 7.5h5.792969c1.988281 0 3.898437-.789063 5.304687-2.195313s2.195313-3.3125 2.195313-5.304687v-86.203126c0-1.867187 1.574219-3.441406 3.445312-3.441406l4.808594-.003906c1.867187 0 3.445313 1.578125 3.445313 3.445312v86.203126c0 1.988281.792968 3.898437 2.199218 5.304687s3.3125 2.195313 5.304688 2.195313h5.789062c4.144532 0 7.5-3.359376 7.5-7.5v-86.207032c0-1.222656.640625-2.042968 1.019532-2.421875.378906-.382812 1.203124-1.019531 2.429687-1.019531h4.804687c1.226563 0 2.046876.636719 2.429688 1.015625.378906.382813 1.015625 1.203125 1.015625 2.429687v86.203126c0 4.140624 3.359375 7.5 7.5 7.5h5.796875c4.144531 0 7.5-3.359376 7.5-7.5v-71.40625c0-1.871094 1.578125-3.449219 3.445312-3.449219h4.804688c1.871094 0 3.449219 1.578125 3.449219 3.445312v158.960938c0 1.867187-1.578125 3.445312-3.445313 3.445312h-10.6875c-4.144531 0-7.5 3.359375-7.5 7.5v22.007813h-5.285156c-4.140625 0-7.5 3.359375-7.5 7.5s3.359375 7.5 7.5 7.5h25.046875v20.109375c-4.023437.820312-7.878906 2.640625-11.175781 5.457031h-93.714844zm93.550781 256.847656h-82.210937v-216.28125h73.929687c-1.242187 7.671875 1.082031 15.8125 6.980469 21.714844l1.300781 1.296875zm0 0"/><path d="m361.765625 286.617188c-3.9375-1.207032-8.105469.992187-9.34375 4.929687-1.234375 3.9375.960937 8.136719 4.890625 9.394531 1.222656.394532 29.902344 10.003906 29.902344 46.929688 0 4.144531 3.355468 7.5 7.5 7.5 4.144531 0 7.5-3.355469 7.5-7.5 0-38.605469-26.460938-56.945313-40.449219-61.253906zm0 0"/><path d="m174.324219 399.5c-4.140625 0-7.5 3.359375-7.5 7.5v20.082031c0 1.226563-.636719 2.046875-1.019531 2.425781-.378907.382813-1.199219 1.019532-2.425782 1.019532h-10.6875c-4.144531 0-7.5 3.359375-7.5 7.5v58.972656h-62.523437v-58.972656c0-4.140625-3.359375-7.5-7.5-7.5h-14.074219c-1.871094 0-3.449219-1.578125-3.449219-3.445313v-14.929687c0-1.988282-.792969-3.894532-2.199219-5.300782l-37.523437-37.523437c-3.902344-3.90625-3.902344-10.257813 0-14.164063 3.902344-3.902343 10.257813-3.902343 14.160156 0l12.757813 12.757813c2.148437 2.144531 5.371094 2.789063 8.175781 1.628906 2.804687-1.164062 4.628906-3.898437 4.628906-6.929687v-99.144532c0-1.222656.640625-2.046874 1.019531-2.425781.382813-.378906 1.203126-1.019531 2.429688-1.019531h4.808594c1.867187 0 3.445312 1.578125 3.445312 3.445312v76.050782c0 4.144531 3.355469 7.5 7.5 7.5l5.792969.003906c1.988281 0 3.894531-.792969 5.304687-2.195312 1.40625-1.40625 2.195313-3.316407 2.195313-5.304688v-86.203125c0-1.226563.636719-2.050781 1.015625-2.429687.382812-.378907 1.203125-1.019532 2.429688-1.019532h4.808593c1.867188 0 3.445313 1.578125 3.445313 3.449219v86.199219c0 1.992187.789062 3.898437 2.199218 5.304687 1.40625 1.40625 3.3125 2.195313 5.300782 2.195313h5.792968c4.140626 0 7.5-3.355469 7.5-7.5v-86.203125c0-1.226563.640626-2.046875 1.019532-2.425781.378906-.382813 1.203125-1.019532 2.425781-1.019532h4.808594c1.226562 0 2.050781.636719 2.429687 1.019532.378906.378906 1.015625 1.199218 1.015625 2.425781v86.203125c0 1.988281.792969 3.898437 2.199219 5.304687s3.3125 2.195313 5.304688 2.195313h5.792968c4.140625 0 7.496094-3.359375 7.496094-7.5v-71.410156c0-1.226563.640625-2.046876 1.019531-2.425782.382813-.382812 1.203125-1.019531 2.429688-1.019531h4.808593c1.867188 0 3.445313 1.578125 3.445313 3.445313l-.003906 102.882812c0 4.140625 3.359375 7.5 7.5 7.5s7.5-3.359375 7.5-7.5v-102.878906c0-10.171875-8.277344-18.445313-18.445313-18.445313h-4.808594c-3.308593 0-6.488281.871094-9.273437 2.503907-.277344-4.484376-2.160156-8.671876-5.378906-11.886719-3.488281-3.488281-8.121094-5.410157-13.035157-5.410157h-4.808593c-4.914063 0-9.542969 1.921876-13.03125 5.410157-.277344.277343-.546875.566406-.808594.859375-3.378906-3.84375-8.332031-6.269532-13.84375-6.269532h-4.808594s0 0-.003906 0c-4.914063 0-9.542969 1.921876-13.03125 5.410157-2.1875 2.191406-3.761719 4.828125-4.628906 7.703125-2.886719-1.875-6.328125-2.964844-10.019531-2.964844h-4.804688c-.003906 0-.003906 0-.003906 0-4.914063 0-9.542969 1.921875-13.03125 5.414062-3.492188 3.488282-5.414063 8.117188-5.414063 13.035157v81.035156c-9.753906-9.707031-25.589843-9.695313-35.332031.042969-9.75 9.753906-9.75 25.621094 0 35.375l35.332031 35.328125v11.820312c0 10.171875 8.273438 18.445313 18.445313 18.449219h6.574218v54.460938c0 6.621093 5.386719 12.007812 12.007813 12.007812h68.511719c6.621094 0 12.007812-5.386719 12.007812-12.007812v-54.464844h3.1875c4.914063 0 9.542969-1.921875 13.035156-5.410156 3.488282-3.492188 5.410157-8.121094 5.410157-13.035157v-20.082031c0-4.140625-3.359375-7.5-7.5-7.5zm0 0"/><path d="m73.765625 364.117188c-3.957031-1.214844-8.15625 1.003906-9.371094 4.964843-1.222656 3.957031 1.003907 8.15625 4.960938 9.375.296875.089844 29.859375 9.617188 29.859375 46.914063 0 4.144531 3.359375 7.5 7.5 7.5 4.144531 0 7.5-3.355469 7.5-7.5 0-38.605469-26.457032-56.949219-40.449219-61.253906zm0 0"/></svg>