<?xml version="1.0" encoding="iso-8859-1"?>
<!-- Generator: Adobe Illustrator 19.0.0, SVG Export Plug-In . SVG Version: 6.00 Build 0)  -->
<svg version="1.1" id="Capa_1" xmlns="http://www.w3.org/2000/svg" xmlns:xlink="http://www.w3.org/1999/xlink" x="0px" y="0px"
	 viewBox="0 0 512.001 512.001" style="enable-background:new 0 0 512.001 512.001;" xml:space="preserve">
<path style="fill:#50374B;" d="M298.772,485.438c12.079,0,21.87-9.792,21.87-21.87V288.76c0-12.079-9.792-21.87-21.87-21.87
	c-12.078,0-21.87,9.792-21.87,21.87v174.808C276.902,475.647,286.694,485.438,298.772,485.438z"/>
<path style="fill:#695A6E;" d="M351.566,485.438c12.079,0,21.87-9.792,21.87-21.87V288.76c0-12.079-9.792-21.87-21.87-21.87
	c-12.078,0-21.87,9.792-21.87,21.87v174.808C329.696,475.647,339.487,485.438,351.566,485.438z"/>
<path style="fill:#BA6746;" d="M232.45,156.644c0.118-23.662,19.768-42.912,43.8-42.912h58.527h38.659h2.002
	c19.943,0,36.249,15.975,36.348,35.686v27.869l43.896-22.476c7.433-3.805,16.548-0.865,20.354,6.569
	c3.807,7.435,0.866,16.548-6.569,20.354l-65.911,33.747c-2.169,1.11-4.533,1.662-6.892,1.662c-2.74,0-5.475-0.744-7.889-2.221
	c-4.494-2.748-7.234-7.635-7.234-12.902v-52.526c-0.014-2.887-2.923-5.515-6.101-5.515h-2.002V288.76h-96.534V150.182h-0.652
	c-3.818,0-7.313,3.149-7.352,6.615v133.831c0,10.065-8.16,18.225-18.225,18.225c-10.065,0-18.225-8.16-18.225-18.225V156.737
	C232.45,156.706,232.45,156.676,232.45,156.644z"/>
<path style="fill:#FF3C3C;" d="M232.45,156.644c0.118-23.662,19.768-42.912,43.8-42.912h27.619c-0.01,0.163-0.026,0.324-0.033,0.489
	c-0.541,12.071,10.66,22.352,22.352,22.352c12.53,0,21.81-10.241,22.352-22.352c0.007-0.163,0.004-0.325,0.007-0.489h26.889
	c19.943,0,36.249,15.975,36.348,35.686v27.039h-30.247v-26.964c-0.014-2.887-2.923-5.515-6.101-5.515h-2.002v144.781h-96.534
	V150.182h-0.652c-3.818,0-7.313,3.149-7.352,6.615v19.662h-36.45v-19.722C232.45,156.706,232.45,156.676,232.45,156.644z"/>
<circle style="fill:#BA6746;" cx="325.247" cy="64.334" r="37.772"/>
<circle style="fill:#BA6746;" cx="325.247" cy="64.384" r="37.822"/>
<path style="fill:#592713;" d="M461.686,243.126c-4.491,0-8.132-3.641-8.132-8.132V90.733c0-4.491,3.64-8.132,8.132-8.132
	c4.491,0,8.132,3.641,8.132,8.132v144.262C469.817,239.485,466.178,243.126,461.686,243.126z"/>
<path style="fill:#BCE7EC;" d="M503.264,102.725h-83.155c-4.824,0-8.736-3.911-8.736-8.736V63.757c0-4.824,3.911-8.736,8.736-8.736
	h83.155c4.824,0,8.736,3.911,8.736,8.736v30.233C512,98.813,508.089,102.725,503.264,102.725z"/>
<path style="fill:#343E6B;" d="M144.636,485.438c-11.946,0-21.629-9.684-21.629-21.629v-172.89c0-11.946,9.684-21.629,21.629-21.629
	s21.629,9.684,21.629,21.629v172.89C166.265,475.754,156.581,485.438,144.636,485.438z"/>
<path style="fill:#414B82;" d="M92.421,485.438c-11.946,0-21.629-9.684-21.629-21.629v-172.89c0-11.946,9.684-21.629,21.629-21.629
	s21.629,9.684,21.629,21.629v172.89C114.05,475.754,104.367,485.438,92.421,485.438z"/>
<path style="fill:#FFB69E;" d="M210.23,160.253c-0.117-23.403-19.551-42.442-43.32-42.442h-48.306h-0.155H70.143
	c-23.769,0-43.203,19.039-43.32,42.442c0,0.03,0,0.06,0,0.09v132.422c0,9.955,8.07,18.025,18.025,18.025s18.025-8.07,18.025-18.025
	V160.403c0.038-3.427,3.495-6.542,7.271-6.542h0.649v137.057h95.474V153.862h0.644c3.777,0,7.232,3.114,7.271,6.542v132.363
	c0,9.955,8.07,18.025,18.025,18.025s18.025-8.07,18.025-18.025V160.344C210.23,160.314,210.23,160.284,210.23,160.253z"/>
<path style="fill:#64AFFF;" d="M210.23,160.253c-0.117-23.403-19.551-42.442-43.32-42.442h-29.361
	c0.381,10.928-9.773,20.204-20.374,20.204c-11.362,0-19.788-9.24-20.36-20.204H70.143c-23.769,0-43.203,19.039-43.32,42.442
	c0,0.03,0,0.06,0,0.09v38.972h36.049v-38.912c0.038-3.427,3.495-6.542,7.271-6.542h0.649v137.057h95.474V153.862h0.644
	c3.777,0,7.232,3.114,7.271,6.542v38.912h36.049v-38.972C210.23,160.314,210.23,160.284,210.23,160.253z"/>
<circle style="fill:#FFB69E;" cx="118.515" cy="68.955" r="37.359"/>
<path style="fill:#46738C;" d="M78.84,331.413c-4.148,0-7.51-3.362-7.51-7.51c0-14.631-11.904-26.535-26.535-26.535
	s-26.535,11.904-26.535,26.535c0,4.147-3.361,7.51-7.51,7.51s-7.51-3.362-7.51-7.51c0-22.913,18.641-41.555,41.555-41.555
	S86.35,300.99,86.35,323.903C86.35,328.05,82.988,331.413,78.84,331.413z"/>
<path style="fill:#6C9BAA;" d="M78.876,414.652c-0.335,2.665-2.602,4.664-5.289,4.664H16.004c-2.687,0-4.954-2-5.289-4.664
	L0.042,329.9c-0.191-1.518,0.279-3.045,1.291-4.193c1.012-1.148,2.468-1.804,3.998-1.804h78.93c1.53,0,2.986,0.657,3.998,1.804
	c1.012,1.147,1.482,2.674,1.291,4.193L78.876,414.652z"/>
<path style="fill:#FFB69E;" d="M26.822,272.299v20.466c0,9.955,8.07,18.025,18.025,18.025s18.025-8.07,18.025-18.025v-20.466H26.822
	z"/>
<g>
</g>
<g>
</g>
<g>
</g>
<g>
</g>
<g>
</g>
<g>
</g>
<g>
</g>
<g>
</g>
<g>
</g>
<g>
</g>
<g>
</g>
<g>
</g>
<g>
</g>
<g>
</g>
<g>
</g>
</svg>
