<?xml version="1.0" encoding="iso-8859-1"?>
<!-- Generator: Adobe Illustrator 19.0.0, SVG Export Plug-In . SVG Version: 6.00 Build 0)  -->
<svg version="1.1" id="Capa_1" xmlns="http://www.w3.org/2000/svg" xmlns:xlink="http://www.w3.org/1999/xlink" x="0px" y="0px"
	 viewBox="0 0 512 512" style="enable-background:new 0 0 512 512;" xml:space="preserve">
<path style="fill:#DDDDDD;" d="M238.42,472.276H26.408c-9.711,0-17.58-7.869-17.58-17.58V30.822c0-9.711,7.869-17.58,17.58-17.58
	h212.016c9.711,0,17.58,7.869,17.58,17.58V454.7C256,464.406,248.131,472.276,238.42,472.276z"/>
<path d="M238.42,481.103H26.407C11.847,481.103,0,469.254,0,454.694V30.822C0,16.262,11.847,4.414,26.407,4.414h212.017
	c14.56,0,26.407,11.847,26.407,26.407v423.877C264.823,469.259,252.976,481.103,238.42,481.103z M26.407,22.069
	c-4.826,0-8.753,3.927-8.753,8.753v423.872c0,4.828,3.927,8.755,8.753,8.755H238.42c4.826,0,8.755-3.927,8.756-8.755V30.822
	c0-4.826-3.927-8.753-8.753-8.753C238.423,22.069,26.407,22.069,26.407,22.069z"/>
<rect x="35.311" y="39.724" style="fill:#595959;" width="194.204" height="344.276"/>
<path d="M229.517,392.828H35.311c-4.875,0-8.828-3.953-8.828-8.828V39.724c0-4.875,3.953-8.828,8.828-8.828h194.206
	c4.875,0,8.828,3.953,8.828,8.828V384C238.345,388.875,234.392,392.828,229.517,392.828z M44.138,375.172h176.551V48.552H44.138
	V375.172z"/>
<circle style="fill:#DDDDDD;" cx="132.409" cy="428.137" r="17.655"/>
<path d="M132.414,454.621c-14.604,0-26.483-11.879-26.483-26.483s11.879-26.483,26.483-26.483s26.483,11.879,26.483,26.483
	S147.018,454.621,132.414,454.621z M132.414,419.311c-4.868,0-8.828,3.962-8.828,8.828s3.959,8.828,8.828,8.828
	s8.828-3.962,8.828-8.828C141.242,423.271,137.282,419.311,132.414,419.311z"/>
<rect x="35.311" y="75.035" style="fill:#85D839;" width="467.865" height="194.204"/>
<path d="M503.172,278.069H35.311c-4.875,0-8.828-3.953-8.828-8.828V75.035c0-4.875,3.953-8.828,8.828-8.828h467.862
	c4.875,0,8.828,3.953,8.828,8.828v194.206C512,274.116,508.047,278.069,503.172,278.069z M44.138,260.414h450.206V83.863H44.138
	V260.414z"/>
<circle style="fill:#9DFB46;" cx="273.661" cy="172.138" r="70.626"/>
<path d="M273.655,251.586c-43.808,0-79.448-35.64-79.448-79.448s35.64-79.448,79.448-79.448c43.805,0,79.448,35.64,79.448,79.448
	S317.461,251.586,273.655,251.586z M273.655,110.346c-34.073,0-61.793,27.72-61.793,61.793s27.72,61.793,61.793,61.793
	s61.793-27.72,61.793-61.793S307.728,110.346,273.655,110.346z"/>
<path d="M268.981,227.664v-13.37c-7.689-0.137-15.629-2.516-20.26-5.826l3.174-8.871c4.767,3.174,11.656,5.69,19.067,5.69
	c9.397,0,15.757-5.429,15.757-12.972c0-7.282-5.173-11.785-14.967-15.757c-13.511-5.292-21.843-11.387-21.843-22.904
	c0-10.991,7.812-19.329,19.99-21.319v-13.37h8.206v12.844c7.94,0.26,13.37,2.379,17.214,4.63l-3.311,8.739
	c-2.776-1.585-8.206-4.502-16.688-4.502c-10.192,0-14.035,6.086-14.035,11.387c0,6.881,4.904,10.328,16.424,15.096
	c13.639,5.561,20.524,12.439,20.524,24.223c0,10.465-7.282,20.26-20.921,22.519v13.767h-8.329v-0.003H268.981z"/>
<path style="fill:#FFDD95;" d="M432.243,225.104l-70.312-8.828v-83.862c0-12.186-9.882-22.069-22.069-22.069
	c-12.186,0-22.069,9.882-22.069,22.069v92.69v44.138v71.817c0,16.207,11.33,29.714,26.483,33.187V498.76h114.759V374.246
	c15.153-3.479,26.483-16.98,26.483-33.187v-62.68C485.517,248.956,461.664,225.104,432.243,225.104z"/>
<path d="M459.034,507.586H344.276c-4.875,0-8.828-3.953-8.828-8.828V380.677c-15.892-6.53-26.483-21.944-26.483-39.616V132.414
	c0-17.037,13.862-30.896,30.896-30.896s30.896,13.86,30.896,30.896v76.073l62.056,7.791c33.983,0.308,61.53,28.047,61.53,62.101
	v62.681c0,17.668-10.591,33.082-26.483,39.612v118.086C467.862,503.634,463.909,507.586,459.034,507.586z M353.103,489.931h97.103
	V374.246c0-4.116,2.841-7.681,6.853-8.604c11.557-2.655,19.629-12.762,19.629-24.582v-62.68c0-24.508-19.939-44.449-44.449-44.449
	c-0.366,0-0.737-0.024-1.099-0.069l-70.31-8.828c-4.418-0.554-7.728-4.308-7.728-8.758v-83.862c0-7.301-5.94-13.241-13.241-13.241
	s-13.241,5.94-13.241,13.241V341.06c0,11.823,8.073,21.931,19.629,24.582c4.009,0.918,6.853,4.487,6.853,8.604v115.685H353.103z"/>
<path d="M361.931,269.242c-4.875,0-8.828-3.953-8.828-8.828v-44.138c0-4.875,3.953-8.828,8.828-8.828
	c4.875,0,8.828,3.953,8.828,8.828v44.138C370.759,265.289,366.806,269.242,361.931,269.242z"/>
<path d="M397.242,260.414c-4.875,0-8.828-3.953-8.828-8.828v-26.483c0-4.875,3.953-8.828,8.828-8.828s8.828,3.953,8.828,8.828
	v26.483C406.068,256.461,402.117,260.414,397.242,260.414z"/>
<path d="M432.551,260.414c-4.875,0-8.828-3.953-8.828-8.828v-26.483c0-4.875,3.953-8.828,8.828-8.828s8.828,3.953,8.828,8.828
	v26.483C441.379,256.461,437.426,260.414,432.551,260.414z"/>
<g>
</g>
<g>
</g>
<g>
</g>
<g>
</g>
<g>
</g>
<g>
</g>
<g>
</g>
<g>
</g>
<g>
</g>
<g>
</g>
<g>
</g>
<g>
</g>
<g>
</g>
<g>
</g>
<g>
</g>
</svg>
