<svg id="Layer_1" enable-background="new 0 0 64 64" height="512" viewBox="0 0 64 64" width="512" xmlns="http://www.w3.org/2000/svg"><g><g><path d="m33.5 9h-3c-6.627 0-12 5.373-12 12s5.373 12 12 12h3c6.627 0 12-5.373 12-12s-5.373-12-12-12z" fill="#f68820"/></g><g><path d="m20.118 15c-1.023 1.766-1.618 3.812-1.618 6 0 6.627 5.373 12 12 12s12-5.373 12-12c0-2.188-.595-4.234-1.618-6z" fill="#fbbe18"/></g><path d="m30.5 20c-1.103 0-2-.897-2-2s.897-2 2-2 2 .897 2 2c0 .553.447 1 1 1s1-.447 1-1c0-1.859-1.279-3.411-3-3.858v-2.142c0-.553-.447-1-1-1s-1 .447-1 1v2.142c-1.721.447-3 1.999-3 3.858 0 2.206 1.794 4 4 4 1.103 0 2 .897 2 2s-.897 2-2 2-2-.897-2-2c0-.553-.447-1-1-1s-1 .447-1 1c0 1.859 1.279 3.411 3 3.858v2.142c0 .553.447 1 1 1s1-.447 1-1v-2.142c1.721-.447 3-1.999 3-3.858 0-2.206-1.794-4-4-4z" fill="#f68820"/><path d="m43 39h-9v8h7v-6c0-1.105.895-2 2-2z" fill="#eec78e"/><g><path d="m54 5h-44c-1.105 0-2-.895-2-2 0-1.105.895-2 2-2h44c1.105 0 2 .895 2 2 0 1.105-.895 2-2 2z" fill="#353744"/></g><g><path d="m34 3c0-1.105-.895-2-2-2h-22c-1.105 0-2 .895-2 2 0 1.104.895 2 2 2h22c1.105 0 2-.896 2-2z" fill="#55525b"/></g><g><path d="m44.5 13h-25c-.552 0-1-.448-1-1v-7h27v7c0 .552-.448 1-1 1z" fill="#353744"/></g><g><path d="m32.5 13h-13c-.552 0-1-.448-1-1v-3h12c1.105 0 2 .895 2 2z" fill="#55525b"/></g><g><path d="m50 1h2v12h-2z" fill="#f68820"/></g><g><circle cx="51" cy="13" fill="#fbbe18" r="2"/></g><g><path d="m49 13h4v2h-4z" fill="#b3b4b6"/></g><g><path d="m49 13h2v2h-2z" fill="#dbdee3"/></g><g><path d="m51 23h-2c-.552 0-1-.448-1-1v-6c0-.552.448-1 1-1h2z" fill="#fbbe18"/></g><g><path d="m51 23h2c.552 0 1-.448 1-1v-6c0-.552-.448-1-1-1h-2z" fill="#f68820"/></g><g><path d="m50 23v-6.5c0-.276-.224-.5-.5-.5s-.5.224-.5.5v6.5z" fill="#f68820"/></g><g><path d="m53 23v-3.5c0-.276-.224-.5-.5-.5s-.5.224-.5.5v3.5z" fill="#fbbe18"/></g><g><path d="m34 47h14v4h-14z" fill="#dbdee3"/></g><g><path d="m41 47h7v4h-7z" fill="#b3b4b6"/></g><g><path d="m50 63h-18v-11c0-.552.448-1 1-1h16c.552 0 1 .448 1 1z" fill="#6fa4d8"/></g><g><path d="m50 63h-9v-12h8c.552 0 1 .448 1 1z" fill="#5c76b2"/></g><g><circle cx="48" cy="57" fill="#fbbe18" r="1"/></g><g><path d="m49 39h-15c0-3.314 2.686-6 6-6h9c1.657 0 3 1.343 3 3 0 1.657-1.343 3-3 3z" fill="#eec78e"/></g><g><path d="m49 37.5h-1c-.552 0-1-.448-1-1v-1c0-.552.448-1 1-1h1c.828 0 1.5.672 1.5 1.5 0 .828-.672 1.5-1.5 1.5z" fill="#db9e68"/></g><path d="m63.414 31.586c-.781-.781-2.047-.781-2.828 0l-7.414 7.414h-10.172c-1.105 0-2 .895-2 2v6h7v-2c0-1.105.895-2 2-2h3.172c1.068 0 2.072-.416 2.828-1.172l7.414-7.414c.781-.781.781-2.047 0-2.828z" fill="#db9e68"/><g><path d="m16 47h14v4h-14z" fill="#dbdee3"/></g><g><path d="m23 47h7v4h-7z" fill="#b3b4b6"/></g><g><path d="m32 63h-18v-11c0-.552.448-1 1-1h16c.552 0 1 .448 1 1z" fill="#6fa4d8"/></g><g><path d="m32 63h-9v-12h8c.552 0 1 .448 1 1z" fill="#5c76b2"/></g><g><circle cx="30" cy="57" fill="#fbbe18" r="1"/></g><g><path d="m15 39h15c0-3.314-2.686-6-6-6h-9c-1.657 0-3 1.343-3 3 0 1.657 1.343 3 3 3z" fill="#eec78e"/></g><g><path d="m15 37.5h1c.552 0 1-.448 1-1v-1c0-.552-.448-1-1-1h-1c-.828 0-1.5.672-1.5 1.5 0 .828.672 1.5 1.5 1.5z" fill="#db9e68"/></g><path d="m10.828 39-7.414-7.414c-.781-.781-2.047-.781-2.828 0s-.781 2.047 0 2.828l7.414 7.414c.756.756 1.76 1.172 2.828 1.172h3.172c1.105 0 2 .895 2 2v2h14v-8z" fill="#db9e68"/><g><path d="m23 47h-7v-2c0-1.105-.895-2-2-2h5c2.209 0 4 1.791 4 4z" fill="#eec78e"/></g></g></svg>