<svg id="_x33_0" enable-background="new 0 0 64 64" height="512" viewBox="0 0 64 64" width="512" xmlns="http://www.w3.org/2000/svg"><g><g><g><path d="m59 21v13h-8v-4-4-4-4h5c1.65 0 3 1.35 3 3z" fill="#ecc19c"/></g><g><path d="m13 30v4h-8v-13c0-1.66 1.34-3 3-3h5v4 4z" fill="#ecc19c"/></g><g><path d="m33 48 2 9 2-4 6 2-3-9h-.69c1.69-1.09 1.69-4 1.69-4 5-3 1-7 1-7s.13-.4.21-1h8.79 8v22c0 3.23-2.77 6-6 6h-21-21c-3.23 0-6-2.77-6-6v-22h8 8.79c.08.6.21 1 .21 1s-4 4 1 7c0 0 0 3.2 1.95 4.15l-2.95 8.85 6-2 2 4 2-9c.36 0 .69-.03.99-.08z" fill="#cf9e76"/></g><g><path d="m40 46 3 9-6-2-2 4-2-9-.01-.08c2.24-.37 3.01-1.92 3.01-1.92 1.52.61 2.57.48 3.31 0z" fill="#ffeaa7"/></g><g><path d="m28 46s1 2 4 2l-2 9-2-4-6 2 2.95-8.85c.72.35 1.7.39 3.05-.15z" fill="#ffeaa7"/></g><g><path d="m42.21 34c-.08.6-.21 1-.21 1s4 4-1 7c0 0 0 2.91-1.69 4-.74.48-1.79.61-3.31 0 0 0-.77 1.55-3.01 1.92-.3.05-.63.08-.99.08-3 0-4-2-4-2-1.35.54-2.33.5-3.05.15-1.95-.95-1.95-4.15-1.95-4.15-5-3-1-7-1-7s-.13-.4-.21-1c-.14-1.06-.1-2.75 1.22-3.86.79-.67 2.04-1.14 3.99-1.14 0 0 1-3 5-3s5 3 5 3c1.9 0 3.14.44 3.93 1.09 1.37 1.11 1.42 2.83 1.28 3.91z" fill="#ff826e"/></g><g><circle cx="32" cy="37" fill="#fc6e51" r="6"/></g><g><path d="m32 26h19v4h-10l-.07.09c-.79-.65-2.03-1.09-3.93-1.09 0 0-1-3-5-3z" fill="#b4dd7f"/></g><g><path d="m13 26h19c-4 0-5 3-5 3-1.95 0-3.2.47-3.99 1.14l-.01-.14h-10z" fill="#b4dd7f"/></g><g><path d="m51 30v4h-8.79c.14-1.08.09-2.8-1.28-3.91l.07-.09z" fill="#a0d468"/></g><g><path d="m23 30 .01.14c-1.32 1.11-1.36 2.8-1.22 3.86h-8.79v-4z" fill="#a0d468"/></g><g><path d="m51 22v4h-19-19v-4h5 14 14z" fill="#a0d468"/></g><g><path d="m51 7v10c-5 0-5 5-5 5h-14c5.52 0 10-4.48 10-10s-4.48-10-10-10h14s0 5 5 5z" fill="#b4dd7f"/></g><g><path d="m18 2h14c-5.52 0-10 4.48-10 10s4.48 10 10 10h-14s0-5-5-5v-10c5 0 5-5 5-5z" fill="#b4dd7f"/></g><g><path d="m51 18v4h-5s0-5 5-5z" fill="#a0d468"/></g><g><path d="m51 2v5c-5 0-5-5-5-5z" fill="#a0d468"/></g><g><path d="m13 2h5s0 5-5 5z" fill="#a0d468"/></g><g><path d="m18 22h-5v-4-1c5 0 5 5 5 5z" fill="#a0d468"/></g><g><circle cx="32" cy="12" fill="#fcd770" r="10"/></g></g><g><path d="m32 30c-3.86 0-7 3.141-7 7s3.14 7 7 7 7-3.141 7-7-3.14-7-7-7zm0 12c-2.757 0-5-2.243-5-5s2.243-5 5-5 5 2.243 5 5-2.243 5-5 5z"/><path d="m56 17h-4v-16h-40v16h-4c-2.206 0-4 1.794-4 4v35c0 3.794 3.206 7 7 7h42c3.794 0 7-3.206 7-7v-35c0-2.206-1.794-4-4-4zm0 2c1.103 0 2 .897 2 2v12h-6v-14zm-30.401 28.365c.62.085 1.295.031 2.029-.181.539.612 1.541 1.415 3.15 1.701l-1.144 5.148-1.128-2.256-4.925 1.642zm13.716-.257 2.104 6.311-4.925-1.642-1.128 2.256-1.197-5.386c1.069-.375 1.779-.98 2.204-1.462 1.115.321 2.095.284 2.942-.077zm1.17-5.965-.482.292-.003.562c-.003.652-.227 2.488-1.208 3.148-.553.372-1.369.348-2.42-.074l-.836-.316-.423.785c-.033.06-.815 1.46-3.113 1.46s-3.08-1.4-3.105-1.447l-.412-.823-.854.342c-1.053.423-1.869.447-2.42.074-.982-.661-1.206-2.497-1.209-3.146v-.566l-.485-.291c-1.219-.731-1.896-1.562-2.011-2.467-.194-1.528 1.192-2.957 1.203-2.969l.437-.437-.195-.587c-.007-.02-.641-2.037.311-3.357.634-.88 1.892-1.326 3.74-1.326h.721l.228-.684c.008-.023.809-2.316 4.051-2.316 3.188 0 4.021 2.23 4.051 2.316l.228.684h.721c1.842 0 3.099.443 3.735 1.319.962 1.324.321 3.348.316 3.364l-.195.587.437.437c.014.014 1.392 1.439 1.205 2.96-.113.908-.79 1.741-2.013 2.476zm9.515-12.143h-8.875c-.902-.577-2.065-.909-3.486-.983-.164-.292-.41-.65-.739-1.017h13.1zm0-8h-2.869c.241-1.025.934-2.509 2.869-2.896zm0 2v2h-36v-2zm-27.125 6h-8.875v-2h13.1c-.329.366-.575.725-.739 1.017-1.421.074-2.584.406-3.486.983zm-8.875-8v-2.898c1.945.385 2.633 1.863 2.87 2.898zm0 10h7.173c-.291.674-.407 1.366-.425 2h-6.748zm29.253 2c-.018-.634-.134-1.326-.425-2h7.172v2zm6.747-27.102c-1.945-.384-2.633-1.863-2.87-2.898h2.87zm-4.911-2.898c.32 1.944 1.603 4.498 4.911 4.93v8.139c-3.308.433-4.591 2.987-4.911 4.93h-6.784c2.834-1.991 4.695-5.279 4.695-8.999s-1.861-7.008-4.695-9zm-13.089 18c-4.962 0-9-4.037-9-9s4.038-9 9-9 9 4.037 9 9-4.038 9-9 9zm-11-9c0 3.72 1.861 7.008 4.695 9h-6.784c-.319-1.944-1.602-4.498-4.911-4.93v-8.14c3.308-.433 4.591-2.987 4.911-4.93h6.784c-2.834 1.992-4.695 5.28-4.695 9zm-4.131-9c-.241 1.025-.935 2.509-2.869 2.896v-2.896zm-8.869 16h4v14h-6v-12c0-1.103.897-2 2-2zm45 42h-42c-2.664 0-5-2.337-5-5v-21h14.708c-.593.817-1.394 2.258-1.19 3.911.174 1.413 1.018 2.641 2.51 3.654.083.96.428 2.844 1.739 3.972l-3.348 10.044 7.075-2.358 2.872 5.744 2.135-9.607 2.135 9.607 2.872-5.744 7.075 2.358-3.62-10.86c.721-1.081.946-2.403 1.011-3.155 1.493-1.014 2.336-2.241 2.51-3.654.203-1.653-.597-3.094-1.19-3.911h14.706v21c0 2.662-2.336 4.999-5 4.999z"/><path d="m33 5h-2v2h-4v6h8v2h-8v2h4v2h2v-2h4v-6h-8v-2h8v-2h-4z"/></g></g></svg>