<svg id="Capa_1" enable-background="new 0 0 512 512" height="512" viewBox="0 0 512 512" width="512" xmlns="http://www.w3.org/2000/svg"><g><g><path d="m256 379.24h42.427v125.26l-42.427-24.244-42.427 24.244v-125.26z" fill="#fb636f"/></g><g><path d="m7.5 7.5h497v351.537h-497z" fill="#93d87b"/></g><g><path d="m484.297 7.5h20.203v351.537h-20.203z" fill="#67c846"/></g><g><path d="m256 268.122c-50.13 0-90.915 40.784-90.915 90.915h181.829c.001-50.131-40.784-90.915-90.914-90.915z" fill="#67c846"/></g><g><path d="m120.638-24.825h270.724v416.187h-270.724z" fill="#eff3f5" transform="matrix(0 1 -1 0 439.268 -72.732)"/></g><g><path d="m174.575 318.63h162.85c-14.903-29.909-45.801-50.508-81.425-50.508s-66.522 20.599-81.425 50.508z" fill="#c9e2e7"/></g><g><g><path d="m311.559 105.486v34.346c0 14.505-24.875 26.264-55.559 26.264s-55.559-11.759-55.559-26.264v-34.346z" fill="#695e66"/></g><g><path d="m256 130.74-81.871-28.958 81.871-27.611 81.871 27.611z" fill="#786e79"/></g></g><g><path d="m213.573 379.24v60.183c12.674 6.716 27.112 10.528 42.427 10.528s29.753-3.812 42.427-10.528v-60.183h-42.427z" fill="#fa4954"/></g><g><circle cx="256" cy="359.037" fill="#fce25c" r="70.711"/></g><g><path d="m298.71 302.689c9.01 11.867 14.364 26.661 14.364 42.71 0 39.053-31.659 70.711-70.711 70.711-16.049 0-30.843-5.355-42.71-14.364 12.913 17.01 33.344 28.001 56.347 28.001 39.053 0 70.711-31.659 70.711-70.711 0-23.003-10.991-43.433-28.001-56.347z" fill="#fbd307"/></g><g><circle cx="422.172" cy="89.828" fill="#fce25c" r="15.152"/></g><g><circle cx="89.828" cy="89.828" fill="#fce25c" r="15.152"/></g><g><path d="m504.5 235.41c4.143 0 7.5-3.358 7.5-7.5v-220.41c0-4.142-3.357-7.5-7.5-7.5h-497c-4.143 0-7.5 3.358-7.5 7.5v351.537c0 4.142 3.357 7.5 7.5 7.5h170.657c2.018 21.11 12.457 39.797 27.917 52.651v85.312c0 2.673 1.423 5.145 3.735 6.487 2.313 1.342 5.166 1.352 7.485.025l38.706-22.118 38.706 22.118c1.153.659 2.437.988 3.721.988 1.301 0 2.601-.338 3.765-1.013 2.313-1.342 3.735-3.813 3.735-6.487v-22.475c0-4.142-3.357-7.5-7.5-7.5s-7.5 3.358-7.5 7.5v9.551l-31.206-17.832c-2.305-1.317-5.137-1.317-7.441 0l-31.206 17.832v-62.59c10.521 5.275 22.378 8.262 34.927 8.262s24.406-2.988 34.927-8.262v17.987c0 4.142 3.357 7.5 7.5 7.5s7.5-3.358 7.5-7.5v-27.785c15.46-12.854 25.898-31.541 27.917-52.651h170.655c4.143 0 7.5-3.358 7.5-7.5v-96.093c0-4.142-3.357-7.5-7.5-7.5s-7.5 3.358-7.5 7.5v88.593h-163.157c-.86-8.999-3.258-17.552-6.917-25.407h137.167c4.143 0 7.5-3.358 7.5-7.5v-270.723c0-4.142-3.357-7.5-7.5-7.5h-416.187c-4.143 0-7.5 3.358-7.5 7.5v112.808c0 4.142 3.357 7.5 7.5 7.5s7.5-3.358 7.5-7.5v-105.308h401.188v255.723h-138.838c-14.322-18.42-36.67-30.305-61.756-30.305s-47.434 11.885-61.756 30.305h-138.838v-115.259c0-4.142-3.357-7.5-7.5-7.5s-7.5 3.358-7.5 7.5v122.759c0 4.142 3.357 7.5 7.5 7.5h137.167c-3.659 7.855-6.056 16.407-6.917 25.407h-163.156v-336.537h482v212.91c0 4.142 3.357 7.5 7.5 7.5zm-248.5 60.415c34.854 0 63.211 28.356 63.211 63.211s-28.357 63.212-63.211 63.212-63.211-28.356-63.211-63.211 28.357-63.212 63.211-63.212z"/><path d="m185.289 184.86c-4.143 0-7.5 3.358-7.5 7.5s3.357 7.5 7.5 7.5h141.422c4.143 0 7.5-3.358 7.5-7.5s-3.357-7.5-7.5-7.5z"/><path d="m127.28 222.665c0 4.142 3.357 7.5 7.5 7.5h242.44c4.143 0 7.5-3.358 7.5-7.5s-3.357-7.5-7.5-7.5h-242.44c-4.142 0-7.5 3.357-7.5 7.5z"/><path d="m134.78 256.429h242.44c4.143 0 7.5-3.358 7.5-7.5s-3.357-7.5-7.5-7.5h-242.44c-4.143 0-7.5 3.358-7.5 7.5s3.358 7.5 7.5 7.5z"/><path d="m355.577 289.335c0 4.142 3.357 7.5 7.5 7.5h70.712c4.143 0 7.5-3.358 7.5-7.5s-3.357-7.5-7.5-7.5h-70.712c-4.142 0-7.5 3.358-7.5 7.5z"/><path d="m70.711 289.335c0 4.142 3.357 7.5 7.5 7.5h70.712c4.143 0 7.5-3.358 7.5-7.5s-3.357-7.5-7.5-7.5h-70.712c-4.143 0-7.5 3.358-7.5 7.5z"/><path d="m345.371 101.727c-.023-3.198-2.072-6.029-5.104-7.052l-81.871-27.611c-1.555-.524-3.238-.524-4.793 0l-81.871 27.611c-3.031 1.022-5.08 3.854-5.104 7.052s1.983 6.06 4.999 7.126l21.313 7.539v23.44c0 19.249 27.109 33.764 63.059 33.764s63.059-14.516 63.059-33.764v-23.44l21.313-7.539c3.017-1.067 5.024-3.928 5-7.126zm-89.371-19.641 58.902 19.865-58.902 20.833-58.902-20.833zm48.059 57.746c0 7.651-18.722 18.764-48.059 18.764s-48.059-11.113-48.059-18.764v-18.135l45.558 16.114c.81.286 1.655.429 2.501.429s1.691-.143 2.501-.429l45.558-16.114z"/><path d="m266.102 381.841h-30.305c-4.143 0-7.5 3.358-7.5 7.5s3.357 7.5 7.5 7.5h12.703v2.602c0 4.142 3.357 7.5 7.5 7.5s7.5-3.358 7.5-7.5v-2.602h2.602c9.705 0 17.602-7.896 17.602-17.602v-10.102c0-9.706-7.896-17.602-17.602-17.602h-20.203c-1.435 0-2.602-1.167-2.602-2.602v-10.102c0-1.435 1.167-2.602 2.602-2.602h30.305c4.143 0 7.5-3.358 7.5-7.5s-3.357-7.5-7.5-7.5h-12.704v-3.612c0-4.142-3.357-7.5-7.5-7.5s-7.5 3.358-7.5 7.5v3.612h-2.602c-9.705 0-17.602 7.896-17.602 17.602v10.102c0 9.706 7.896 17.602 17.602 17.602h20.203c1.435 0 2.602 1.167 2.602 2.602v10.102c0 1.435-1.167 2.602-2.601 2.602z"/><path d="m444.824 89.828c0-12.491-10.162-22.652-22.652-22.652s-22.652 10.161-22.652 22.652 10.162 22.652 22.652 22.652 22.652-10.161 22.652-22.652zm-30.304 0c0-4.22 3.433-7.652 7.652-7.652s7.652 3.433 7.652 7.652-3.433 7.652-7.652 7.652-7.652-3.432-7.652-7.652z"/><path d="m89.828 67.176c-12.49 0-22.652 10.162-22.652 22.652s10.162 22.652 22.652 22.652 22.652-10.162 22.652-22.652-10.162-22.652-22.652-22.652zm0 30.304c-4.22 0-7.652-3.433-7.652-7.652s3.433-7.652 7.652-7.652 7.652 3.433 7.652 7.652-3.432 7.652-7.652 7.652z"/></g></g></svg>