<?xml version="1.0" encoding="iso-8859-1"?>
<!-- Generator: Adobe Illustrator 19.0.0, SVG Export Plug-In . SVG Version: 6.00 Build 0)  -->
<svg version="1.1" id="Capa_1" xmlns="http://www.w3.org/2000/svg" xmlns:xlink="http://www.w3.org/1999/xlink" x="0px" y="0px"
	 viewBox="0 0 512 512" style="enable-background:new 0 0 512 512;" xml:space="preserve">
<path style="fill:#F6E5CB;" d="M468.36,504.484H43.646c-2.798,0-5.067-2.272-5.067-5.074V259.504h434.847V499.41
	C473.427,502.213,471.158,504.484,468.36,504.484z"/>
<path style="fill:#ECD4B2;" d="M468.36,504.484h-29.928v-244.98h34.996V499.41C473.427,502.213,471.158,504.484,468.36,504.484z"/>
<path style="fill:#D7DCDD;" d="M214.78,99.428h-86.152l-14.737,159.675h-0.076c0,26.252,21.281,47.533,47.533,47.533
	c26.124,0,47.317-21.076,47.523-47.151h0.014L214.78,99.428z"/>
<g>
	<path style="fill:#647999;" d="M296.75,99.428h-81.971l-5.895,160.057h0.11c0,25.831,20.94,46.77,46.771,46.77
		s46.771-20.94,46.771-46.77h0.006L296.75,99.428z"/>
	<path style="fill:#647999;" d="M454.674,103.352c-0.509-2.293-2.543-3.924-4.891-3.924h-66.892l12.921,160.056h-0.003
		c0,25.831,20.94,46.771,46.771,46.771c14.873,0,28.124-6.942,36.691-17.763c8.305-10.49,11.123-24.313,8.222-37.374
		L454.674,103.352z"/>
</g>
<path style="fill:#4F6784;" d="M479.269,288.49c-8.57,10.82-21.82,17.76-36.69,17.76c-4.26,0-8.39-0.57-12.31-1.63
	c9.78-2.66,18.29-8.4,24.4-16.13c8.31-10.49,11.13-24.31,8.23-37.37l-32.82-147.77c-0.51-2.29-2.55-3.92-4.89-3.92h24.59
	c2.35,0,4.39,1.63,4.89,3.92l32.82,147.77C490.389,264.18,487.579,278,479.269,288.49z"/>
<path style="fill:#D7DCDD;" d="M382.899,99.43h-0.01h-86.14l5.895,160.054c0,25.831,20.94,46.771,46.771,46.771
	s46.771-20.94,46.771-46.771L382.899,99.43z"/>
<g>
	<path style="fill:#647999;" d="M128.628,99.428H62.215c-2.348,0-4.382,1.631-4.891,3.924L24.729,250.66
		c-5.4,24.406,9.843,49.074,34.332,54.085c2.969,0.607,6.043,0.927,9.191,0.927c25.187,0,45.604-20.418,45.604-45.604
		L128.628,99.428z"/>
	<path style="fill:#647999;" d="M423.305,63.048H88.701c-2.767,0-5.01-2.243-5.01-5.01V12.526c0-2.767,2.243-5.01,5.01-5.01h334.603
		c2.767,0,5.01,2.243,5.01,5.01v45.512C428.315,60.805,426.072,63.048,423.305,63.048z"/>
</g>
<path style="fill:#4F6784;" d="M423.305,63.048h-27.118V7.515h27.118c2.767,0,5.01,2.243,5.01,5.01v45.512
	C428.315,60.805,426.072,63.048,423.305,63.048z"/>
<g>
	<path style="fill:#9FE0FE;" d="M137.592,401.241H76.613c-2.767,0-5.01-2.243-5.01-5.01V348.2c0-2.767,2.243-5.01,5.01-5.01h60.979
		c2.767,0,5.01,2.243,5.01,5.01v48.031C142.602,398.998,140.359,401.241,137.592,401.241z"/>
	<path style="fill:#9FE0FE;" d="M433.421,401.241h-60.979c-2.767,0-5.01-2.243-5.01-5.01V348.2c0-2.767,2.243-5.01,5.01-5.01h60.979
		c2.767,0,5.01,2.243,5.01,5.01v48.031C438.431,398.998,436.188,401.241,433.421,401.241z"/>
</g>
<g>
	<path style="fill:#7ED0ED;" d="M433.421,401.241h-20.009V343.19h20.009c2.767,0,5.01,2.243,5.01,5.01v48.031
		C438.431,398.998,436.188,401.241,433.421,401.241z"/>
	<path style="fill:#7ED0ED;" d="M137.592,401.241h-20.009V343.19h20.009c2.767,0,5.01,2.243,5.01,5.01v48.031
		C142.602,398.998,140.359,401.241,137.592,401.241z"/>
</g>
<path style="fill:#F27979;" d="M180.01,504.484v-91.291c0-41.97,34.023-75.993,75.993-75.993l0,0
	c41.97,0,75.993,34.023,75.993,75.993v91.291H180.01z"/>
<path style="fill:#CE5F5F;" d="M331.993,413.189v91.295h-28.548v-91.295c0-20.983-8.507-39.981-22.255-53.739
	c-10.561-10.551-24.199-18.017-39.46-20.912c4.619-0.882,9.389-1.343,14.269-1.343c20.983,0,39.981,8.507,53.739,22.255
	C323.486,373.208,331.993,392.207,331.993,413.189z"/>
<path d="M137.592,335.674H76.613c-6.907,0-12.525,5.619-12.525,12.525v48.031c0,6.907,5.619,12.525,12.525,12.525h60.979
	c6.907,0,12.525-5.619,12.525-12.525V348.2C150.117,341.293,144.498,335.674,137.592,335.674z M135.087,393.726H79.118v-43.021
	h55.969L135.087,393.726L135.087,393.726z"/>
<path d="M433.421,335.674h-60.979c-6.907,0-12.525,5.619-12.525,12.525v48.031c0,6.907,5.619,12.525,12.525,12.525h60.979
	c6.907,0,12.525-5.619,12.525-12.525V348.2C445.947,341.293,440.328,335.674,433.421,335.674z M430.916,393.726h-55.969v-43.021
	h55.969V393.726z"/>
<path d="M496.825,258.7c-0.003-0.026-0.009-0.052-0.012-0.079c-0.028-0.247-0.068-0.489-0.119-0.728
	c-0.003-0.013-0.003-0.026-0.006-0.039l-34.679-156.135l0,0c-1.283-5.776-6.311-9.809-12.227-9.809h-52.9V70.563h26.424
	c6.907,0,12.525-5.619,12.525-12.525V12.525C435.83,5.619,430.211,0,423.305,0H88.701c-6.907,0-12.525,5.619-12.525,12.525v45.512
	c0,6.907,5.619,12.525,12.525,12.525h26.424V91.91H62.218c-5.916,0-10.944,4.034-12.227,9.809l-34.68,156.135
	c-0.003,0.013-0.004,0.026-0.006,0.039c-0.051,0.239-0.091,0.482-0.119,0.728c-0.003,0.026-0.009,0.052-0.012,0.079
	c-0.027,0.258-0.041,0.519-0.041,0.784c0,0.011,0.001,0.021,0.001,0.032c0,0.017,0.001,0.033,0.001,0.05
	c0.022,14.941,6.111,28.485,15.93,38.298V499.4c0,6.948,5.645,12.6,12.583,12.6h424.713c6.938,0,12.582-5.652,12.582-12.6V297.856
	c9.814-9.812,15.9-23.354,15.922-38.29c0-0.017,0.001-0.033,0.001-0.05c0-0.011,0.001-0.021,0.001-0.032
	C496.866,259.219,496.851,258.957,496.825,258.7z M447.77,106.94l32.212,145.028h-77.238L391.037,106.94H447.77z M91.207,55.533
	V15.031H420.8v40.502h-61.592c-4.151,0-7.515,3.365-7.515,7.515s3.365,7.515,7.515,7.515h22.642V91.91h-84.183
	c-0.391-0.048-0.788-0.075-1.193-0.06c-0.232,0.008-0.461,0.031-0.687,0.06h-80.38c-0.207-0.017-0.415-0.031-0.627-0.031
	c-0.211,0-0.419,0.014-0.626,0.031h-83.997V70.563h174.608c4.151,0,7.515-3.365,7.515-7.515s-3.365-7.515-7.515-7.515
	C304.765,55.533,91.207,55.533,91.207,55.533z M387.83,266.999c-3.516,18.063-19.458,31.741-38.534,31.741
	s-35.018-13.678-38.534-31.741H387.83z M309.785,251.968L304.54,106.94h71.418l11.708,145.028H309.785z M216.682,251.968
	l5.342-145.028h67.475l5.246,145.028H216.682z M294.3,266.999c-3.516,18.063-19.458,31.741-38.534,31.741
	s-35.018-13.678-38.535-31.741H294.3z M122.101,251.968l13.381-145.028h71.501l-5.342,145.028H122.101z M200.643,266.999
	c-3.516,18.063-19.458,31.741-38.534,31.741s-35.018-13.678-38.534-31.741H200.643z M64.228,106.94h56.16l-13.384,145.028H32.015
	L64.228,106.94z M30.884,266.999h77.068c-3.516,18.063-19.458,31.741-38.534,31.741S34.401,285.062,30.884,266.999z
	 M465.911,496.949h-126.4v-83.756c0-46.047-37.462-83.508-83.508-83.508c-9.45,0-18.725,1.568-27.57,4.66
	c-3.918,1.369-5.984,5.656-4.614,9.574s5.656,5.986,9.574,4.614c7.246-2.533,14.853-3.818,22.609-3.818
	c37.759,0,68.478,30.719,68.478,68.478v83.756H187.525v-83.756c0-11.651,2.975-23.152,8.604-33.26
	c2.019-3.626,0.716-8.203-2.91-10.222c-3.624-2.018-8.203-0.716-10.222,2.91c-6.871,12.339-10.503,26.368-10.503,40.573v83.756
	h-126.4V308.495c7.07,3.379,14.979,5.275,23.324,5.275c19.597,0,36.8-10.44,46.345-26.048c9.546,15.608,26.748,26.048,46.345,26.048
	c19.938,0,37.389-10.812,46.828-26.874c9.439,16.062,26.89,26.874,46.828,26.874c19.894,0,37.312-10.763,46.765-26.764
	c9.454,16.002,26.872,26.764,46.765,26.764c19.805,0,37.16-10.666,46.642-26.55c9.482,15.885,26.836,26.55,46.642,26.55
	c8.348,0,16.26-1.898,23.332-5.278v188.457H465.911z M442.579,298.74c-19.076,0-35.018-13.678-38.534-31.741h77.068
	C477.597,285.062,461.656,298.74,442.579,298.74z"/>
<g>
</g>
<g>
</g>
<g>
</g>
<g>
</g>
<g>
</g>
<g>
</g>
<g>
</g>
<g>
</g>
<g>
</g>
<g>
</g>
<g>
</g>
<g>
</g>
<g>
</g>
<g>
</g>
<g>
</g>
</svg>
